<mxfile host="drawio-plugin" modified="2023-11-07T07:10:12.473Z" agent="5.0 (Windows NT 6.2; Win64; x64) AppleWebKit/537.36 (KHTML, like Gecko) Chrome/104.0.5112.102 Safari/537.36" etag="5S9qTbl9MSshc-uugrrR" version="20.5.3" type="embed"><diagram name="페이지-1" id="q04Y4RyBtX_a_hriLJLF"><mxGraphModel dx="899" dy="399" grid="1" gridSize="10" guides="1" tooltips="1" connect="1" arrows="1" fold="1" page="1" pageScale="1" pageWidth="827" pageHeight="1169" math="0" shadow="0"><root><mxCell id="0"/><mxCell id="1" parent="0"/><mxCell id="nZR88hf0O_DFail2BoQR-1" value="Game" style="rounded=0;whiteSpace=wrap;html=1;" parent="1" vertex="1"><mxGeometry x="110" y="350" width="120" height="60" as="geometry"/></mxCell><mxCell id="nZR88hf0O_DFail2BoQR-2" value="Computer" style="rounded=0;whiteSpace=wrap;html=1;" parent="1" vertex="1"><mxGeometry x="420" y="270" width="120" height="60" as="geometry"/></mxCell><mxCell id="nZR88hf0O_DFail2BoQR-3" value="Judgment" style="rounded=0;whiteSpace=wrap;html=1;" parent="1" vertex="1"><mxGeometry x="420" y="470" width="120" height="60" as="geometry"/></mxCell><mxCell id="nZR88hf0O_DFail2BoQR-4" value="Player" style="rounded=0;whiteSpace=wrap;html=1;" parent="1" vertex="1"><mxGeometry x="420" y="370" width="120" height="60" as="geometry"/></mxCell><mxCell id="nZR88hf0O_DFail2BoQR-6" value="" style="endArrow=classic;html=1;rounded=0;exitX=1;exitY=0.25;exitDx=0;exitDy=0;entryX=0;entryY=0.5;entryDx=0;entryDy=0;" parent="1" source="nZR88hf0O_DFail2BoQR-1" target="nZR88hf0O_DFail2BoQR-2" edge="1"><mxGeometry width="50" height="50" relative="1" as="geometry"><mxPoint x="340" y="480" as="sourcePoint"/><mxPoint x="390" y="430" as="targetPoint"/></mxGeometry></mxCell><mxCell id="nZR88hf0O_DFail2BoQR-8" value="" style="endArrow=classic;html=1;rounded=0;exitX=1;exitY=0.5;exitDx=0;exitDy=0;" parent="1" source="nZR88hf0O_DFail2BoQR-1" target="nZR88hf0O_DFail2BoQR-4" edge="1"><mxGeometry width="50" height="50" relative="1" as="geometry"><mxPoint x="240" y="375" as="sourcePoint"/><mxPoint x="430" y="310" as="targetPoint"/></mxGeometry></mxCell><mxCell id="nZR88hf0O_DFail2BoQR-9" value="정답을 생성" style="text;html=1;strokeColor=none;fillColor=none;align=center;verticalAlign=middle;whiteSpace=wrap;rounded=0;" parent="1" vertex="1"><mxGeometry x="280" y="300" width="70" height="30" as="geometry"/></mxCell><mxCell id="nZR88hf0O_DFail2BoQR-10" value="정답을 입력" style="text;html=1;strokeColor=none;fillColor=none;align=center;verticalAlign=middle;whiteSpace=wrap;rounded=0;" parent="1" vertex="1"><mxGeometry x="300" y="360" width="70" height="30" as="geometry"/></mxCell><mxCell id="nZR88hf0O_DFail2BoQR-11" value="" style="endArrow=classic;html=1;rounded=0;exitX=1;exitY=0.75;exitDx=0;exitDy=0;entryX=0;entryY=0.5;entryDx=0;entryDy=0;" parent="1" source="nZR88hf0O_DFail2BoQR-1" target="nZR88hf0O_DFail2BoQR-3" edge="1"><mxGeometry width="50" height="50" relative="1" as="geometry"><mxPoint x="110" y="520" as="sourcePoint"/><mxPoint x="300" y="625" as="targetPoint"/></mxGeometry></mxCell><mxCell id="nZR88hf0O_DFail2BoQR-12" value="정답인지 판단" style="text;html=1;strokeColor=none;fillColor=none;align=center;verticalAlign=middle;whiteSpace=wrap;rounded=0;" parent="1" vertex="1"><mxGeometry x="320" y="430" width="80" height="30" as="geometry"/></mxCell><mxCell id="nZR88hf0O_DFail2BoQR-14" value="" style="curved=1;endArrow=classic;html=1;rounded=0;exitX=0.5;exitY=1;exitDx=0;exitDy=0;" parent="1" source="nZR88hf0O_DFail2BoQR-1" target="nZR88hf0O_DFail2BoQR-1" edge="1"><mxGeometry width="50" height="50" relative="1" as="geometry"><mxPoint x="110" y="460" as="sourcePoint"/><mxPoint x="100" y="380" as="targetPoint"/><Array as="points"><mxPoint x="100" y="450"/><mxPoint x="50" y="410"/><mxPoint x="50" y="380"/></Array></mxGeometry></mxCell><mxCell id="3" value="게임을 더 진행할것인가?" style="text;html=1;strokeColor=none;fillColor=none;align=center;verticalAlign=middle;whiteSpace=wrap;rounded=0;" vertex="1" parent="1"><mxGeometry x="70" y="440" width="140" height="30" as="geometry"/></mxCell></root></mxGraphModel></diagram></mxfile>